<svg width="512" height="584" viewBox="0 0 512 584" fill="none" xmlns="http://www.w3.org/2000/svg">
<path d="M234.004 4.407C245.304 -1.38795 258.685 -1.47207 270.058 4.17946L489.799 113.378C503.398 120.136 511.998 134.012 511.998 149.198V431.888C511.998 446.932 503.557 460.704 490.152 467.532L270.417 579.45C258.85 585.342 245.142 585.254 233.651 579.214L21.3887 467.641C8.2362 460.728 0 447.093 0 432.234V148.849C0 133.846 8.39651 120.103 21.7471 113.257L234.004 4.407ZM269.622 80.8738C258.492 75.4006 245.452 75.3998 234.321 80.8728L90.6211 151.534C76.9392 158.262 68.2715 172.183 68.2715 187.429V379.928C68.2715 394.716 76.4306 408.298 89.4863 415.243L233.187 491.683C244.931 497.931 259.013 497.931 270.758 491.683L414.453 415.243C427.508 408.298 435.667 394.716 435.667 379.928V187.428C435.667 172.182 426.999 158.262 413.317 151.534L269.622 80.8738ZM363.172 176.506C382.273 167.745 404.86 176.128 413.62 195.229C422.38 214.33 413.997 236.915 394.896 245.676L326.657 276.972C307.164 285.913 294.668 305.392 294.668 326.838V413.295C294.668 434.308 277.634 451.341 256.621 451.342C235.608 451.342 218.573 434.308 218.573 413.295V327.52C218.573 306.075 206.077 286.596 186.584 277.656L117.116 245.794C98.0028 237.027 89.615 214.426 98.3809 195.312C107.139 176.216 129.708 167.822 148.815 176.553L256.227 225.636C256.288 225.664 256.359 225.62 256.361 225.553C256.363 225.517 256.384 225.484 256.416 225.47L363.172 176.506Z" fill="black"/>
</svg>
