<svg width="512" height="584" viewBox="0 0 512 584" fill="none" xmlns="http://www.w3.org/2000/svg">
<path d="M234.004 4.40747C245.304 -1.38746 258.685 -1.47252 270.058 4.17896L489.799 113.378C503.398 120.136 511.998 134.012 511.998 149.198V431.889C511.998 446.932 503.557 460.704 490.152 467.531L270.417 579.45C258.85 585.342 245.142 585.254 233.651 579.214L21.3887 467.641C8.23639 460.727 1.65876e-05 447.093 0 432.235V148.849C9.65374e-05 133.845 8.39641 120.103 21.7471 113.256L234.004 4.40747ZM269.622 80.8733C258.492 75.4002 245.452 75.4003 234.321 80.8733L90.6211 151.534C76.9394 158.262 68.2716 172.183 68.2715 187.429V379.929C68.2716 394.717 76.4307 408.298 89.4863 415.243L233.187 491.684C244.931 497.931 259.013 497.931 270.758 491.684L414.453 415.243C427.508 408.298 435.667 394.717 435.667 379.929V187.429C435.667 172.182 426.999 158.262 413.317 151.534L269.622 80.8733ZM363.172 176.506C382.273 167.745 404.86 176.128 413.62 195.23C422.38 214.33 413.997 236.915 394.896 245.675L326.657 276.973C307.164 285.913 294.668 305.393 294.668 326.838V413.294C294.668 434.307 277.634 451.342 256.621 451.342C235.608 451.342 218.573 434.307 218.573 413.294V327.521C218.573 306.076 206.077 286.596 186.584 277.656L117.116 245.794C98.0027 237.028 89.6151 214.427 98.3809 195.313C107.138 176.217 129.708 167.822 148.815 176.554L256.227 225.636C256.288 225.664 256.359 225.621 256.361 225.553C256.363 225.517 256.383 225.485 256.416 225.47L363.172 176.506Z" fill="white"/>
</svg>
