<svg width="75" height="85" viewBox="0 0 75 85" fill="none" xmlns="http://www.w3.org/2000/svg">
<path d="M33.1504 0.881599C35.4104 -0.277392 38.0868 -0.294607 40.3613 0.835701L70.2227 15.6755C72.9426 17.0272 74.6631 19.8024 74.6631 22.8396V61.3923C74.6629 64.4008 72.9746 67.1547 70.2939 68.5203L40.4336 83.7293C38.1201 84.9076 35.3782 84.8903 33.0801 83.6824L4.27734 68.5427C1.64714 67.16 0.000117899 64.4332 0 61.4617V22.7693C2.39938e-05 19.7685 1.67949 17.0204 4.34961 15.6511L33.1504 0.881599ZM40.2744 12.0027C38.0483 10.908 35.44 10.908 33.2139 12.0027L14.4258 21.242C11.6895 22.5875 9.95605 25.3714 9.95605 28.4207V53.8406C9.95605 56.7982 11.5881 59.5151 14.1992 60.9041L32.9873 70.8982C35.3361 72.1476 38.1522 72.1476 40.501 70.8982L59.2891 60.9041C61.9 59.5151 63.5311 56.7989 63.5312 53.8416V28.4207C63.5312 25.3714 61.7979 22.5875 59.0615 21.242L40.2744 12.0027ZM52.3594 25.6189C55.1448 24.3414 58.4393 25.5639 59.7168 28.3494C60.9938 31.1346 59.7715 34.4284 56.9863 35.7058L47.0352 40.2693C44.1926 41.573 42.3702 44.4136 42.3701 47.5408V60.1482C42.3701 63.2123 39.8863 65.6968 36.8223 65.697C33.758 65.697 31.2734 63.2125 31.2734 60.1482V47.6404C31.2734 44.5132 29.4509 41.6726 26.6084 40.3689L16.4785 35.7224C13.6913 34.444 12.4678 31.1484 13.7461 28.3611C15.0232 25.5765 18.3142 24.3526 21.1006 25.6257L36.7646 32.783C36.7735 32.7868 36.7837 32.7809 36.7842 32.7712C36.7844 32.766 36.7872 32.7607 36.792 32.7586L52.3594 25.6189Z" fill="white"/>
</svg>
