<svg width="227" height="94" viewBox="0 0 227 94" fill="none" xmlns="http://www.w3.org/2000/svg">
<path d="M36.7393 0.8815C38.9992 -0.277308 41.6758 -0.294621 43.9502 0.835602L77.5146 17.5153C80.2343 18.8668 81.9538 21.6424 81.9541 24.6794V67.9606C81.954 70.9692 80.2658 73.7239 77.585 75.0895L44.0215 92.1842C41.7082 93.3624 38.967 93.3451 36.6689 92.1374L4.27734 75.111C1.64715 73.7282 2.39122e-05 71.0015 0 68.0299V24.61C0.000142326 21.6094 1.67956 18.8601 4.34961 17.4909L36.7393 0.8815ZM43.8623 13.0993C41.6365 12.005 39.0285 12.005 36.8027 13.0993L15.3984 23.6247C12.6623 24.9701 10.928 27.7544 10.9277 30.8034V59.6628C10.9277 62.6202 12.56 65.3362 15.1709 66.7253L36.5752 78.112C38.9241 79.3615 41.7409 79.3615 44.0898 78.112L65.4932 66.7253C68.1041 65.3362 69.7363 62.6202 69.7363 59.6628V30.8034C69.736 27.7544 68.0027 24.9701 65.2666 23.6247L43.8623 13.0993ZM216.449 50.5202C220.129 50.5202 222.801 51.6082 224.465 53.7838C226.129 55.9598 226.961 58.9524 226.961 62.7604C226.961 64.5524 226.737 66.2325 226.289 67.8004C225.841 69.3364 225.154 70.6807 224.226 71.8327C223.33 72.9526 222.193 73.8482 220.817 74.5202C219.441 75.1601 217.841 75.4801 216.018 75.4801C214.194 75.4801 212.61 75.2086 211.266 74.6647C209.954 74.0887 208.865 73.2725 208.001 72.2165C207.137 71.1605 206.497 69.8805 206.081 68.3766C205.697 66.8727 205.505 65.1766 205.505 63.2887C205.505 61.4648 205.73 59.7846 206.178 58.2487C206.626 56.6807 207.297 55.3364 208.193 54.2165C209.121 53.0645 210.273 52.168 211.649 51.528C213.025 50.8561 214.625 50.5202 216.449 50.5202ZM147.818 66.9362C147.818 68.2802 148.058 69.3362 148.538 70.1042C149.018 70.8722 149.834 71.2565 150.986 71.2565C151.69 71.2564 152.378 71.0642 153.05 70.6803C153.754 70.2644 154.378 69.6886 154.922 68.9528C155.498 68.2168 155.946 67.3362 156.266 66.3122C156.618 65.2562 156.794 64.0882 156.794 62.8083V51.0963H162.266V63.4323C162.266 65.3521 162.378 66.968 162.602 68.2799C162.858 69.5598 163.13 70.6001 163.418 71.4001C163.77 72.36 164.154 73.1119 164.57 73.6559L160.298 75.3844C159.914 75.0325 159.562 74.5845 159.242 74.0407C158.986 73.5927 158.714 73.0479 158.426 72.4079C158.17 71.736 157.993 70.9521 157.897 70.0563C157.033 71.9442 155.818 73.2886 154.25 74.0885C152.682 74.8885 151.05 75.2887 149.354 75.2887C146.826 75.2887 145.018 74.5525 143.93 73.0807C142.874 71.6087 142.346 69.5919 142.346 67.0319V51.0963H147.818V66.9362ZM188.226 41.1598V63.4323C188.226 65.3522 188.338 66.9521 188.562 68.2321C188.786 69.4801 189.042 70.5044 189.33 71.3044C189.618 72.0721 189.874 72.6321 190.098 72.984C190.353 73.3355 190.497 73.5597 190.529 73.6559L186.258 75.3844C186.194 75.3524 186.049 75.2088 185.825 74.9528C185.601 74.6648 185.346 74.2804 185.058 73.8004C184.802 73.3204 184.546 72.7281 184.29 72.0241C184.034 71.2881 183.874 70.4401 183.81 69.4801C183.266 71.4 182.386 72.8563 181.17 73.8483C179.986 74.8083 178.369 75.2887 176.321 75.2887C174.817 75.2887 173.506 75.0163 172.386 74.4723C171.298 73.8963 170.385 73.0959 169.649 72.0719C168.914 71.016 168.37 69.7518 168.018 68.2799C167.666 66.8081 167.489 65.1762 167.489 63.3844C167.489 61.5605 167.762 59.8804 168.306 58.3444C168.882 56.7765 169.665 55.4321 170.657 54.3122C171.681 53.1922 172.898 52.3125 174.306 51.6725C175.714 51.0325 177.266 50.7126 178.962 50.7126C179.538 50.7126 180.146 50.7443 180.786 50.8083C181.458 50.8722 182.114 50.9525 182.754 51.0485V40.1999L188.226 41.1598ZM111.967 42.0719C113.087 42.0719 114.16 42.1839 115.184 42.4079C116.207 42.5998 117.135 42.8406 117.967 43.1286C118.831 43.3845 119.551 43.6561 120.127 43.944C120.735 44.2319 121.151 44.4559 121.375 44.6159L119.023 48.7448L118.399 48.4079C117.983 48.1839 117.439 47.9282 116.768 47.6403C116.096 47.3523 115.359 47.0967 114.56 46.8727C113.76 46.6487 112.991 46.5368 112.255 46.5368C111.103 46.5368 110.095 46.8084 109.231 47.3522C108.399 47.8962 107.983 48.7442 107.983 49.8961C107.983 51.336 108.447 52.5199 109.375 53.4479C110.303 54.3439 111.759 55.176 113.743 55.944C115.023 56.456 116.159 56.9998 117.151 57.5758C118.175 58.1198 119.039 58.7607 119.743 59.4967C120.447 60.2327 120.975 61.0808 121.327 62.0407C121.711 63.0006 121.903 64.1529 121.903 65.4967C121.903 66.7125 121.664 67.9125 121.184 69.0963C120.736 70.2803 120.047 71.3363 119.119 72.2643C118.223 73.1603 117.103 73.8963 115.759 74.4723C114.415 75.0162 112.863 75.2887 111.104 75.2887C109.856 75.2887 108.671 75.16 107.551 74.904C106.431 74.648 105.407 74.3606 104.479 74.0407C103.583 73.6887 102.799 73.336 102.127 72.984C101.487 72.6323 101.007 72.3606 100.688 72.1686L102.703 67.7526L103.567 68.2321C104.143 68.552 104.847 68.9048 105.679 69.2887C106.511 69.6727 107.391 70.0244 108.319 70.3444C109.247 70.6643 110.047 70.8238 110.719 70.8239C112.415 70.8239 113.679 70.4078 114.511 69.5758C115.343 68.7438 115.759 67.5759 115.759 66.0719C115.759 65.3682 115.647 64.7606 115.423 64.2487C115.199 63.7047 114.879 63.2401 114.463 62.8561C114.047 62.4722 113.535 62.1362 112.927 61.8483C112.351 61.5284 111.695 61.2241 110.959 60.9362C109.519 60.3282 108.223 59.7199 107.071 59.112C105.951 58.504 104.991 57.8164 104.191 57.0485C103.391 56.2485 102.783 55.352 102.367 54.36C101.951 53.3361 101.743 52.1203 101.743 50.7126C101.743 49.5286 101.999 48.4241 102.511 47.4001C103.023 46.3442 103.727 45.4326 104.623 44.6647C105.519 43.8648 106.591 43.2406 107.839 42.7926C109.087 42.3127 110.463 42.072 111.967 42.0719ZM132.395 51.0963H138.298L137.626 54.984H132.395V69.192C132.395 70.024 132.618 70.5679 133.066 70.8239C133.514 71.0478 134.01 71.1598 134.554 71.1598C135.002 71.1598 135.45 71.1281 135.898 71.0641C136.346 71.0001 136.747 70.9199 137.099 70.8239C137.514 70.7279 137.914 70.6159 138.298 70.4879L139.21 74.0885L138.778 74.2321C138.49 74.3601 138.058 74.5047 137.482 74.6647C136.938 74.7927 136.282 74.9046 135.514 75.0006C134.778 75.1286 133.962 75.192 133.066 75.192C132.17 75.192 131.338 75.096 130.57 74.904C129.834 74.712 129.194 74.4079 128.65 73.9919C128.106 73.5439 127.674 72.9841 127.354 72.3122C127.066 71.6402 126.922 70.8081 126.922 69.8161V54.984H122.603V51.0963H126.922L127.882 45.4801L132.395 44.4723V51.0963ZM199.944 69.2887C199.944 70.0245 200.056 70.5201 200.28 70.776C200.504 71.032 200.84 71.1598 201.288 71.1598H201.672C201.832 71.1598 201.976 71.144 202.104 71.112C202.232 71.1119 202.376 71.0961 202.536 71.0641L203.112 74.5202C202.888 74.6482 202.6 74.7601 202.248 74.8561C201.96 74.9521 201.592 75.0323 201.144 75.0963C200.728 75.1603 200.248 75.192 199.704 75.192C198.008 75.192 196.712 74.6965 195.816 73.7047C194.92 72.6807 194.472 71.3682 194.472 69.7682V51.0963H199.944V69.2887ZM57.4736 28.2145C60.5309 26.8126 64.1466 28.1544 65.5488 31.2116C66.9509 34.2688 65.6088 37.8844 62.5518 39.2868L51.6289 44.2965C48.5088 45.7275 46.508 48.8454 46.5078 52.278V66.1169C46.5078 69.4803 43.7814 72.2066 40.418 72.2067C37.0544 72.2067 34.3281 69.4804 34.3281 66.1169V52.3874C34.328 48.9548 32.3271 45.837 29.207 44.4059L18.0879 39.3053C15.0285 37.9021 13.6858 34.2847 15.0889 31.2253C16.4908 28.1689 20.1037 26.8248 23.1621 28.2223L40.3545 36.0788C40.3643 36.0833 40.3756 36.0759 40.376 36.0651C40.3764 36.0598 40.38 36.0547 40.3848 36.0524L57.4736 28.2145ZM215.97 54.5524C215.042 54.5524 214.273 54.7604 213.665 55.1764C213.089 55.5924 212.625 56.1849 212.273 56.9528C211.954 57.6887 211.73 58.5686 211.602 59.5924C211.474 60.5844 211.409 61.6563 211.409 62.8083C211.409 63.9923 211.474 65.1126 211.602 66.1686C211.762 67.2245 212.033 68.1529 212.417 68.9528C212.801 69.7206 213.313 70.3281 213.953 70.776C214.625 71.224 215.473 71.4479 216.497 71.4479C217.425 71.4479 218.177 71.2399 218.753 70.8239C219.361 70.4079 219.826 69.8323 220.146 69.0963C220.497 68.3285 220.737 67.4485 220.865 66.4567C220.993 65.4647 221.058 64.3919 221.058 63.2399C221.058 62.0561 220.977 60.9363 220.817 59.8805C220.689 58.8245 220.433 57.8963 220.049 57.0963C219.665 56.2964 219.137 55.6722 218.465 55.2243C217.825 54.7765 216.993 54.5525 215.97 54.5524ZM179.586 54.5524C178.37 54.5524 177.362 54.7604 176.562 55.1764C175.794 55.5924 175.169 56.1681 174.689 56.904C174.209 57.64 173.874 58.5206 173.682 59.5446C173.49 60.5684 173.394 61.6882 173.394 62.904C173.394 64.024 173.425 65.0968 173.489 66.1208C173.553 67.1445 173.714 68.0563 173.97 68.8561C174.258 69.6241 174.658 70.2482 175.17 70.7282C175.682 71.1761 176.37 71.4 177.233 71.4001C178.033 71.4001 178.769 71.1285 179.441 70.5846C180.113 70.0406 180.69 69.3363 181.17 68.4723C181.682 67.5763 182.065 66.5679 182.321 65.4479C182.609 64.328 182.754 63.1758 182.754 61.9919V55.0807C182.434 54.9847 181.953 54.8728 181.313 54.7448C180.674 54.6168 180.098 54.5524 179.586 54.5524ZM197.304 40.4401C198.328 40.4401 199.112 40.7442 199.656 41.3522C200.2 41.9602 200.472 42.7448 200.472 43.7047C200.472 44.6644 200.184 45.4643 199.608 46.1042C199.064 46.7441 198.248 47.0641 197.16 47.0641C196.136 47.0641 195.336 46.76 194.76 46.152C194.216 45.5121 193.944 44.7442 193.944 43.8483C193.944 42.8563 194.216 42.0401 194.76 41.4001C195.336 40.7601 196.184 40.4402 197.304 40.4401ZM122.378 28.2321C122.378 29.1706 122.474 29.9494 122.666 30.568C122.879 31.1866 123.157 31.6879 123.498 32.0719C123.861 32.4559 124.288 32.7333 124.778 32.904C125.269 33.0532 125.791 33.1286 126.346 33.1286C127.498 33.1286 128.372 32.7232 128.97 31.9128C129.588 31.0808 129.897 29.8534 129.897 28.2321V15.3366H135.178V28.5202C135.178 29.6721 135.018 30.7708 134.698 31.8161C134.378 32.8614 133.844 33.7896 133.098 34.6003C132.372 35.3895 131.423 36.0186 130.25 36.4879C129.077 36.9573 127.636 37.192 125.93 37.192C124.287 37.192 122.9 36.9573 121.77 36.4879C120.66 35.9973 119.765 35.3573 119.082 34.568C118.399 33.7574 117.898 32.8291 117.578 31.7838C117.28 30.7386 117.13 29.6507 117.13 28.5202V15.3366H122.378V28.2321ZM114.735 19.2086H109.743V37.0006H104.463V19.2086H99.3115V15.3366H115.407L114.735 19.2086ZM144.104 37.0006H138.825V15.3366H144.104V37.0006Z" fill="black"/>
</svg>
